<svg id="color" enable-background="new 0 0 24 24" height="512" viewBox="0 0 24 24" width="512" xmlns="http://www.w3.org/2000/svg"><g fill="#2196f3"><path d="m5 0h-2c-1.654 0-3 1.346-3 3v2c0 .553.448 1 1 1s1-.447 1-1v-2c0-.552.449-1 1-1h2c.552 0 1-.447 1-1s-.448-1-1-1z"/><path d="m5 22h-2c-.551 0-1-.448-1-1v-2c0-.553-.448-1-1-1s-1 .447-1 1v2c0 1.654 1.346 3 3 3h2c.552 0 1-.447 1-1s-.448-1-1-1z"/><path d="m21 0h-2c-.552 0-1 .447-1 1s.448 1 1 1h2c.551 0 1 .448 1 1v2c0 .553.448 1 1 1s1-.447 1-1v-2c0-1.654-1.346-3-3-3z"/><path d="m23 18c-.552 0-1 .447-1 1v2c0 .552-.449 1-1 1h-2c-.552 0-1 .447-1 1s.448 1 1 1h2c1.654 0 3-1.346 3-3v-2c0-.553-.448-1-1-1z"/></g><path d="m13.087 3c-3.811 0-6.912 3.072-6.912 6.851 0 .369-.105.73-.306 1.045l-1.696 2.664c-.113.179-.173.384-.173.592 0 .611.499 1.108 1.112 1.108h1.062v1.761c0 1.007.825 1.826 1.838 1.826.2 0 .39-.03.535-.082l1.253-.375v1.86c0 .414.336.75.75.75h6.525c.414 0 .75-.336.75-.75v-3.606c0-1.027.317-2.017.916-2.859.824-1.16 1.259-2.521 1.259-3.937 0-3.776-3.101-6.848-6.913-6.848z" fill="#ffcc80"/><path d="m23 12h-22c-.552 0-1-.447-1-1s.448-1 1-1h22c.552 0 1 .447 1 1s-.448 1-1 1z" fill="#f44336"/><path d="m12 3.085c-3.297.518-5.825 3.354-5.825 6.766 0 .05-.002.1-.006.149h5.831z" fill="#deb26f"/><path d="m12 12h-6.834l-.993 1.56c-.113.179-.173.384-.173.592 0 .611.499 1.108 1.112 1.108h1.062v1.761c0 1.007.825 1.826 1.838 1.826.2 0 .39-.03.535-.082l1.253-.375v1.86c0 .414.336.75.75.75h1.45z" fill="#deb26f"/><path d="m12 10h-5.831-5.169c-.552 0-1 .447-1 1 0 .553.448 1 1 1h4.166 6.834z" fill="#d43a2f"/><path d="m.876.883c-.541.543-.876 1.291-.876 2.117v2c0 .553.447 1 1 1s1-.447 1-1v-2c0-.274.111-.523.29-.703z" fill="#1d83d4"/><path d="m21.703 21.71c-.181.179-.429.29-.703.29h-2c-.553 0-1 .447-1 1s.447 1 1 1h2c.825 0 1.574-.335 2.117-.876z" fill="#1d83d4"/><path d="m1 18c-.553 0-1 .447-1 1v2c0 .871.373 1.657.968 2.205l1.417-1.417c-.234-.183-.385-.468-.385-.788v-2c0-.553-.447-1-1-1z" fill="#1d83d4"/><path d="m21 0h-2c-.553 0-1 .447-1 1s.447 1 1 1h2c.319 0 .605.151.788.385l1.417-1.417c-.548-.595-1.334-.968-2.205-.968z" fill="#1d83d4"/></svg>