<svg id="Capa_1" enable-background="new 0 0 508.633 508.633" height="512" viewBox="0 0 508.633 508.633" width="512" xmlns="http://www.w3.org/2000/svg"><g><g><g><path d="m329.809 223.898h-307.618c-8.114 0-14.691-6.578-14.691-14.691v-13.04c0-3.418 2.771-6.188 6.188-6.188h324.624c3.418 0 6.188 2.771 6.188 6.188v13.04c0 8.114-6.578 14.691-14.691 14.691z" fill="#c8c3ca"/></g></g><g><g><path d="m294.771 7.752h-237.542c-10.099 0-18.286 8.187-18.286 18.286v163.941h274.113v-163.941c0-10.099-8.186-18.286-18.285-18.286z" fill="#c8c3ca"/></g></g><g><g><path d="m70.943 189.979v-141.849c0-4.627 3.751-8.378 8.378-8.378h193.358c4.627 0 8.378 3.751 8.378 8.378v141.849z" fill="#f1f1f1"/></g></g><g><g><path d="m132.134 189.979h87.732v33.919h-87.732z" fill="#544f56"/></g></g><g><g><path d="m486.442 500.881h-307.618c-8.114 0-14.691-6.578-14.691-14.691v-13.04c0-3.418 2.771-6.188 6.188-6.188h324.624c3.418 0 6.188 2.77 6.188 6.188v13.04c0 8.113-6.577 14.691-14.691 14.691z" fill="#c8c3ca"/></g></g><g><g><path d="m451.404 284.735h-237.542c-10.099 0-18.286 8.187-18.286 18.286v163.941h274.114v-163.941c0-10.099-8.187-18.286-18.286-18.286z" fill="#c8c3ca"/></g></g><g><g><path d="m338.312 189.979h-30c3.418 0 6.188 2.771 6.188 6.188v13.039c0 8.114-6.577 14.691-14.691 14.691h30c8.114 0 14.691-6.577 14.691-14.691v-13.039c0-3.417-2.771-6.188-6.188-6.188z" fill="#b1abb4"/></g></g><g><g><path d="m294.771 7.752h-30c10.099 0 18.286 8.187 18.286 18.286v163.941h30v-163.941c-.001-10.099-8.187-18.286-18.286-18.286z" fill="#b1abb4"/></g></g><g><g><path d="m272.679 39.752h-30c4.627 0 8.378 3.751 8.378 8.378v141.849h30v-141.849c-.001-4.627-3.751-8.378-8.378-8.378z" fill="#e3e0e4"/></g></g><g><g><path d="m494.945 466.962h-30c3.418 0 6.188 2.771 6.188 6.189v13.039c0 8.114-6.577 14.691-14.691 14.691h30c8.114 0 14.691-6.577 14.691-14.691v-13.04c0-3.418-2.771-6.188-6.188-6.188z" fill="#b1abb4"/></g></g><g><g><path d="m451.404 284.735h-30c10.099 0 18.286 8.187 18.286 18.286v163.941h30v-163.941c0-10.099-8.187-18.286-18.286-18.286z" fill="#b1abb4"/></g></g><g><g><path d="m227.576 466.962v-141.849c0-4.627 3.751-8.378 8.378-8.378h193.358c4.627 0 8.378 3.751 8.378 8.378v141.849z" fill="#f1f1f1"/></g></g><g><g><path d="m429.312 316.735h-30c4.627 0 8.378 3.751 8.378 8.378v141.849h30v-141.849c0-4.627-3.751-8.378-8.378-8.378z" fill="#e3e0e4"/></g></g><g><g><path d="m288.767 497.005v-30.043h87.732v30.911" fill="#544f56"/></g></g><g><g><path d="m129.903 420.261h-28.51c-3.88 0-7.026-3.146-7.026-7.026v-28.51c0-3.88 3.146-7.026 7.026-7.026h28.51c3.88 0 7.026 3.146 7.026 7.026v28.51c0 3.88-3.146 7.026-7.026 7.026z" fill="#ffe07d"/></g></g><g><g><path d="m311.524 421.261h-28.509c-3.88 0-7.026-3.146-7.026-7.026v-28.51c0-3.88 3.146-7.026 7.026-7.026h28.509c3.88 0 7.026 3.146 7.026 7.026v28.51c0 3.88-3.146 7.026-7.026 7.026z" fill="#ffe07d"/></g></g><g><g><path d="m420.588 130.211h-28.51c-3.88 0-7.026-3.146-7.026-7.026v-28.51c0-3.88 3.146-7.026 7.026-7.026h28.51c3.88 0 7.026 3.146 7.026 7.026v28.509c0 3.881-3.145 7.027-7.026 7.027z" fill="#ffe07d"/></g></g><g><g><path d="m209.831 130.211h-28.51c-3.88 0-7.026-3.146-7.026-7.026v-28.51c0-3.88 3.146-7.026 7.026-7.026h28.51c3.88 0 7.026 3.146 7.026 7.026v28.509c0 3.881-3.146 7.027-7.026 7.027z" fill="#ffe07d"/></g></g><path d="m494.945 459.462h-17.755v-156.441c0-14.219-11.567-25.786-25.786-25.786h-38.513v-139.524h7.697c8.01 0 14.526-6.517 14.526-14.526v-28.51c0-8.01-6.516-14.526-14.526-14.526h-28.509c-8.01 0-14.526 6.516-14.526 14.526v6.755h-56.996v-75.392c0-14.218-11.567-25.786-25.786-25.786h-237.542c-14.219 0-25.786 11.567-25.786 25.786v107.825c0 4.142 3.358 7.5 7.5 7.5s7.5-3.358 7.5-7.5v-107.825c0-5.947 4.839-10.786 10.786-10.786h237.542c5.947 0 10.786 4.838 10.786 10.786v75.392h-17v-53.3c0-8.755-7.123-15.878-15.878-15.878h-193.358c-8.755 0-15.877 7.123-15.877 15.878v134.349h-17v-18.616c0-4.142-3.358-7.5-7.5-7.5s-7.5 3.358-7.5 7.5v18.616h-17.756c-7.547 0-13.688 6.14-13.688 13.688v13.039c0 12.236 9.955 22.191 22.191 22.191h84.65v138.801h-5.448c-8.01 0-14.526 6.516-14.526 14.526v28.509c0 8.01 6.516 14.526 14.526 14.526h28.51c8.01 0 14.526-6.517 14.526-14.526v-5.754h43.647v51.981h-17.755c-7.548 0-13.688 6.141-13.688 13.689v13.039c0 12.236 9.955 22.191 22.191 22.191h307.618c12.236 0 22.191-9.955 22.191-22.191v-13.038c0-7.548-6.141-13.688-13.688-13.688zm-32.756-156.441v156.441h-17v-134.349c0-8.755-7.123-15.878-15.877-15.878h-99.503c-4.142 0-7.5 3.358-7.5 7.5s3.358 7.5 7.5 7.5h99.503c.484 0 .877.394.877.878v134.349h-195.113v-51.982h33.412v6.754c0 8.01 6.517 14.526 14.526 14.526h28.509c8.01 0 14.526-6.517 14.526-14.526v-28.509c0-8.01-6.516-14.526-14.526-14.526h-28.509c-8.01 0-14.526 6.516-14.526 14.526v6.755h-33.412v-67.368c0-.484.394-.878.878-.878h63.854c4.142 0 7.5-3.358 7.5-7.5s-3.358-7.5-7.5-7.5h-63.854c-8.755 0-15.878 7.123-15.878 15.878v67.368h-17v-89.46c0-5.948 4.839-10.786 10.786-10.786h237.542c5.947.001 10.785 4.839 10.785 10.787zm-178.701 83.178h27.561v27.561h-27.561zm109.065-291.05h27.562v27.562h-27.562zm-86.996 21.281v66.049h-17v-66.049zm-93.191 81.049v18.919h-72.732v-18.919zm15 0h109.634v11.728c0 3.965-3.226 7.191-7.191 7.191h-102.443zm-148.923-149.349c0-.484.393-.878.877-.878h193.358c.484 0 .878.394.878.878v53.3h-49.2v-6.755c0-8.01-6.516-14.526-14.526-14.526h-28.51c-8.01 0-14.526 6.516-14.526 14.526v28.509c0 8.01 6.516 14.526 14.526 14.526h28.51c8.01 0 14.526-6.517 14.526-14.526v-6.754h49.2v66.049h-195.113zm130.914 47.019v27.562h-27.561v-27.562zm-194.357 114.058v-11.728h109.634v18.919h-102.443c-3.965 0-7.191-3.226-7.191-7.191zm114.429 203.554h-27.562v-27.561h27.562zm15-20.281v-7.755c0-8.01-6.516-14.526-14.526-14.526h-8.062v-138.801h207.968c12.236 0 22.191-9.955 22.191-22.191v-13.039c0-7.548-6.141-13.689-13.689-13.689h-17.755v-66.049h56.996v6.754c0 8.01 6.517 14.526 14.526 14.526h5.812v139.524h-184.028c-14.219 0-25.786 11.567-25.786 25.786v89.46zm58.647 15h17v51.981h-17zm-31.443 78.71v-11.728h109.634v18.919h-102.443c-3.965 0-7.191-3.226-7.191-7.191zm124.634 7.191v-18.919h72.732v18.919zm197.366-7.191c0 3.965-3.226 7.191-7.191 7.191h-102.443v-18.919h109.634z"/></g></svg>