<svg id="Capa_1" enable-background="new 0 0 512.08 512.08" height="512" viewBox="0 0 512.08 512.08" width="512" xmlns="http://www.w3.org/2000/svg"><g><g><path d="m442 250.04c11.05 0 20 8.95 20 20s-8.95 20-20 20-20-8.95-20-20c0-5.52 2.24-10.52 5.86-14.14s8.62-5.86 14.14-5.86z" fill="#ff7d97"/><path d="m475.06 57.08h-54.02l.02-.04-27.02-47h-54.03l-27.01 46.79 27.01 46.21h54.01v.04l27.01 47.96h54.03l27.02-47.37z" fill="#fff2a0"/><path d="m382 190.04c11.05 0 20 8.95 20 20 0 5.52-2.24 10.52-5.86 14.14s-8.62 5.86-14.14 5.86c-11.05 0-20-8.95-20-20s8.95-20 20-20z" fill="#ff7d97"/><path d="m372.42 457.82c2.28 4.23 3.58 9.07 3.58 14.22 0 16.57-13.43 30-30 30h-306c-16.57 0-30-13.43-30-30 0-5.15 1.3-9.99 3.58-14.22l63.93-121.78h230.98z" fill="#99ebfa"/><circle cx="262" cy="30.04" fill="#ff7d97" r="20"/><path d="m77.51 336.04h230.98l-52.49-100v-100h20v-40h-166v40h20v100z" fill="#eefaff"/><path d="m213 256.04c0 11.05-8.95 20-20 20s-20-8.95-20-20 20-40 20-40 20 28.95 20 40z" fill="#ff7d97"/></g><g><path d="m483.71 52.063c-1.789-3.085-5.085-4.983-8.65-4.983h-48.191l-24.16-42.024c-1.784-3.103-5.09-5.016-8.669-5.016h-54.03c-3.573 0-6.875 1.906-8.661 5.001l-22.205 38.467-17.456-9.171c.202-1.404.312-2.838.312-4.297 0-16.542-13.458-30-30-30s-30 13.458-30 30 13.458 30 30 30c7.859 0 15.019-3.042 20.373-8.005l23.44 12.315 25.564 43.736c1.793 3.068 5.08 4.954 8.633 4.954h48.142l21.159 37.57-20.125 30.306c-2.304-.568-4.709-.876-7.186-.876-16.542 0-30 13.458-30 30s13.458 30 30 30c4.552 0 8.948-1.01 12.937-2.921l19.984 19.984c-1.91 3.989-2.921 8.385-2.921 12.937 0 16.542 13.458 30 30 30s30-13.458 30-30-13.458-30-30-30c-4.552 0-8.948 1.01-12.937 2.921l-19.984-19.984c1.91-3.989 2.921-8.385 2.921-12.937 0-6.804-2.28-13.083-6.112-18.122l20.505-30.878h48.667c3.591 0 6.907-1.926 8.687-5.045l27.02-47.37c1.765-3.094 1.751-6.892-.036-9.972zm-221.71-12.023c-5.514 0-10-4.486-10-10s4.486-10 10-10 10 4.486 10 10-4.486 10-10 10zm62.564 16.759 21.219-36.759h42.471l21.237 36.94-21.175 36.06h-42.568zm47.436 153.241c0-5.514 4.486-10 10-10s10 4.486 10 10c0 5.521-4.479 10-10 10-5.514 0-10-4.486-10-10zm80 60c0 5.514-4.486 10-10 10s-10-4.486-10-10c0-5.521 4.479-10 10-10 5.514 0 10 4.486 10 10zm17.251-129h-42.376l-21.321-37.859 21.2-36.141h42.545l21.245 36.671z"/><path d="m193 206.04c-3.285 0-6.36 1.613-8.228 4.316-6.546 9.476-21.772 32.897-21.772 45.684 0 16.542 13.458 30 30 30s30-13.458 30-30c0-12.787-15.226-36.208-21.772-45.684-1.868-2.703-4.943-4.316-8.228-4.316zm0 60c-5.514 0-10-4.486-10-9.988.081-3.058 4.241-11.773 10.002-21.479 5.756 9.695 9.913 18.407 9.998 21.476-.004 5.51-4.488 9.991-10 9.991z"/><circle cx="193" cy="502.04" r="10"/><path d="m266 233.575v-87.535h10c5.523 0 10-4.478 10-10v-40c0-5.522-4.477-10-10-10h-166c-5.523 0-10 4.478-10 10v40c0 5.522 4.477 10 10 10h10v87.535l-115.251 219.554c-3.107 5.784-4.749 12.322-4.749 18.911 0 22.056 17.944 40 40 40h108c5.523 0 10-4.478 10-10s-4.477-10-10-10h-108c-11.028 0-20-8.972-20-20 0-3.354.801-6.542 2.382-9.475.018-.032 61.169-116.525 61.169-116.525h218.897s61.151 116.493 61.169 116.525c1.581 2.933 2.382 6.12 2.382 9.475 0 11.028-8.972 20-20 20h-107.999c-5.523 0-10 4.478-10 10s4.477 10 10 10h108c22.056 0 40-17.944 40-40 0-6.589-1.642-13.127-4.749-18.911zm-146-127.535h146v20h-146zm-25.95 220 44.804-85.353c.752-1.434 1.146-3.028 1.146-4.647v-90h106v90c0 1.619.393 3.214 1.146 4.647l44.804 85.353z"/></g></g></svg>