<?xml version="1.0" encoding="UTF-8"?>
<svg xmlns="http://www.w3.org/2000/svg" xmlns:xlink="http://www.w3.org/1999/xlink"
     width="21.0" height="22.0" viewBox="-10.0 -11.0 21.0 22.0">
<defs>
<style type="text/css">
.l0d0 {stroke: rgb(255, 0, 0); fill: rgb(255, 0, 0); fill-opacity: 0.5;}
.l0t0 {stroke: none; fill: rgb(255, 0, 0);}
</style>
</defs><rect x="-10.0" y="-11.0" width="21.0" height="22.0" fill="#222" stroke="none"/>
<g id="c5" transform="scale(1 -1)">
<polygon class="l0d0" points="0.66,-9.98 1.54,-9.879999999999999 2.41,-9.709999999999999 3.2600000000000002,-9.45 4.08,-9.13 4.87,-8.73 5.620000000000001,-8.27 6.33,-7.74 6.989999999999999,-7.1499999999999995 7.6,-6.5 8.139999999999999,-5.81 8.62,-5.0600000000000005 9.040000000000001,-4.28 9.379999999999999,-3.4699999999999998 9.65,-2.62 9.84,-1.7599999999999998 9.96,-0.8799999999999999 10.0,0.0 9.96,0.8799999999999999 9.84,1.7599999999999998 9.65,2.62 9.379999999999999,3.4699999999999998 9.040000000000001,4.28 8.62,5.0600000000000005 8.139999999999999,5.81 7.6,6.5 6.989999999999999,7.1499999999999995 6.33,7.74 5.620000000000001,8.27 4.87,8.73 4.08,9.13 3.2600000000000002,9.45 2.41,9.709999999999999 1.54,9.879999999999999 0.66,9.98 -0.21999999999999997,10.0 -1.1,9.94 -1.98,9.8 -2.84,9.59 -3.67,9.3 -4.48,8.94 -5.25,8.51 -5.9799999999999995,8.01 -6.67,7.45 -7.3,6.83 -7.880000000000001,6.16 -8.39,5.44 -8.84,4.680000000000001 -9.0,4.34 -9.0,-4.34 -8.84,-4.680000000000001 -8.39,-5.44 -7.880000000000001,-6.16 -7.3,-6.83 -6.67,-7.45 -5.9799999999999995,-8.01 -5.25,-8.51 -4.48,-8.94 -3.67,-9.3 -2.84,-9.59 -1.98,-9.8 -1.1,-9.94 -0.21999999999999997,-10.0"/>
<text class="l0t0" text-anchor="middle" dominant-baseline="central" transform="scale(1 -1) translate(0 0)">o</text>
</g>
</svg>